<svg width="17" height="17" viewBox="0 0 17 17" fill="none" xmlns="http://www.w3.org/2000/svg">
<path d="M14.1667 4.9585H2.83341C2.05101 4.9585 1.41675 5.59276 1.41675 6.37516V13.4585C1.41675 14.2409 2.05101 14.8752 2.83341 14.8752H14.1667C14.9492 14.8752 15.5834 14.2409 15.5834 13.4585V6.37516C15.5834 5.59276 14.9492 4.9585 14.1667 4.9585Z" stroke="#A9A9A9" stroke-width="2" stroke-linecap="round" stroke-linejoin="round"/>
<path d="M11.3334 14.875V3.54167C11.3334 3.16594 11.1842 2.80561 10.9185 2.53993C10.6528 2.27426 10.2925 2.125 9.91675 2.125H7.08341C6.70769 2.125 6.34736 2.27426 6.08168 2.53993C5.816 2.80561 5.66675 3.16594 5.66675 3.54167V14.875" stroke="#A9A9A9" stroke-width="2" stroke-linecap="round" stroke-linejoin="round"/>
</svg>
