<svg xmlns="http://www.w3.org/2000/svg" width="1440" height="900" viewBox="0 0 1440 900">
  <!-- Base -->
  <rect width="1440" height="900" fill="#e8e0d8"/>

  <!-- Water body right -->
  <path d="M900 495 C950 480 1100 500 1200 520 C1300 540 1440 560 1440 560 L1440 900 L900 900 Z" fill="#a8d4e6"/>
  
  <!-- Parks -->
  <rect x="115" y="135" width="260" height="108" rx="4" fill="#c8e6c9"/>
  <rect x="1008" y="108" width="202" height="144" rx="4" fill="#c8e6c9"/>
  <rect x="432" y="612" width="288" height="90" rx="4" fill="#c8e6c9"/>
  <rect x="720" y="720" width="180" height="108" rx="4" fill="#c8e6c9"/>
  <rect x="180" y="630" width="144" height="90" rx="4" fill="#c8e6c9"/>

  <!-- City blocks -->
  <rect x="72" y="288" width="144" height="72" rx="2" fill="#e0d8cc" stroke="#d4ccc0" stroke-width="1"/>
  <rect x="72" y="396" width="144" height="54" rx="2" fill="#e0d8cc" stroke="#d4ccc0" stroke-width="1"/>
  <rect x="72" y="486" width="115" height="72" rx="2" fill="#e0d8cc" stroke="#d4ccc0" stroke-width="1"/>
  <rect x="259" y="252" width="173" height="90" rx="2" fill="#e0d8cc" stroke="#d4ccc0" stroke-width="1"/>
  <rect x="259" y="378" width="144" height="72" rx="2" fill="#e0d8cc" stroke="#d4ccc0" stroke-width="1"/>
  <rect x="259" y="486" width="173" height="54" rx="2" fill="#e0d8cc" stroke="#d4ccc0" stroke-width="1"/>
  <rect x="461" y="198" width="144" height="72" rx="2" fill="#e0d8cc" stroke="#d4ccc0" stroke-width="1"/>
  <rect x="461" y="306" width="144" height="90" rx="2" fill="#e0d8cc" stroke="#d4ccc0" stroke-width="1"/>
  <rect x="461" y="432" width="115" height="72" rx="2" fill="#e0d8cc" stroke="#d4ccc0" stroke-width="1"/>
  <rect x="634" y="162" width="115" height="54" rx="2" fill="#e0d8cc" stroke="#d4ccc0" stroke-width="1"/>
  <rect x="634" y="252" width="144" height="72" rx="2" fill="#e0d8cc" stroke="#d4ccc0" stroke-width="1"/>
  <rect x="634" y="360" width="115" height="54" rx="2" fill="#e0d8cc" stroke="#d4ccc0" stroke-width="1"/>
  <rect x="792" y="162" width="115" height="72" rx="2" fill="#e0d8cc" stroke="#d4ccc0" stroke-width="1"/>
  <rect x="792" y="270" width="144" height="90" rx="2" fill="#e0d8cc" stroke="#d4ccc0" stroke-width="1"/>
  <rect x="792" y="396" width="115" height="72" rx="2" fill="#e0d8cc" stroke="#d4ccc0" stroke-width="1"/>
  <rect x="144" y="702" width="130" height="90" rx="2" fill="#e0d8cc" stroke="#d4ccc0" stroke-width="1"/>
  <rect x="324" y="720" width="86" height="72" rx="2" fill="#e0d8cc" stroke="#d4ccc0" stroke-width="1"/>
  <rect x="576" y="756" width="115" height="90" rx="2" fill="#e0d8cc" stroke="#d4ccc0" stroke-width="1"/>

  <!-- Major roads (white thick) -->
  <line x1="0" y1="315" x2="1440" y2="315" stroke="#ffffff" stroke-width="7" opacity="0.9"/>
  <line x1="0" y1="540" x2="1440" y2="540" stroke="#ffffff" stroke-width="5" opacity="0.85"/>
  <line x1="0" y1="720" x2="1440" y2="720" stroke="#ffffff" stroke-width="4" opacity="0.8"/>
  <line x1="403" y1="0" x2="403" y2="900" stroke="#ffffff" stroke-width="7" opacity="0.9"/>
  <line x1="749" y1="0" x2="749" y2="900" stroke="#ffffff" stroke-width="5" opacity="0.85"/>
  <line x1="1008" y1="0" x2="1008" y2="900" stroke="#ffffff" stroke-width="4" opacity="0.8"/>

  <!-- Secondary roads -->
  <line x1="0" y1="162" x2="1440" y2="162" stroke="rgba(255,255,255,0.65)" stroke-width="2.5"/>
  <line x1="0" y1="432" x2="1440" y2="432" stroke="rgba(255,255,255,0.65)" stroke-width="2.5"/>
  <line x1="0" y1="630" x2="1440" y2="630" stroke="rgba(255,255,255,0.65)" stroke-width="2.5"/>
  <line x1="0" y1="810" x2="1440" y2="810" stroke="rgba(255,255,255,0.65)" stroke-width="2.5"/>
  <line x1="144" y1="0" x2="144" y2="900" stroke="rgba(255,255,255,0.65)" stroke-width="2.5"/>
  <line x1="547" y1="0" x2="547" y2="900" stroke="rgba(255,255,255,0.65)" stroke-width="2.5"/>
  <line x1="893" y1="0" x2="893" y2="900" stroke="rgba(255,255,255,0.65)" stroke-width="2.5"/>
  <line x1="1152" y1="0" x2="1152" y2="900" stroke="rgba(255,255,255,0.65)" stroke-width="2.5"/>

  <!-- Tertiary roads -->
  <line x1="0" y1="90" x2="1440" y2="90" stroke="rgba(255,255,255,0.35)" stroke-width="1.5"/>
  <line x1="0" y1="243" x2="1440" y2="243" stroke="rgba(255,255,255,0.35)" stroke-width="1.5"/>
  <line x1="0" y1="360" x2="1440" y2="360" stroke="rgba(255,255,255,0.35)" stroke-width="1.5"/>
  <line x1="0" y1="477" x2="1440" y2="477" stroke="rgba(255,255,255,0.35)" stroke-width="1.5"/>
  <line x1="0" y1="594" x2="1440" y2="594" stroke="rgba(255,255,255,0.35)" stroke-width="1.5"/>
  <line x1="0" y1="666" x2="1440" y2="666" stroke="rgba(255,255,255,0.35)" stroke-width="1.5"/>
  <line x1="0" y1="765" x2="1440" y2="765" stroke="rgba(255,255,255,0.35)" stroke-width="1.5"/>
  <line x1="72" y1="0" x2="72" y2="900" stroke="rgba(255,255,255,0.35)" stroke-width="1.5"/>
  <line x1="216" y1="0" x2="216" y2="900" stroke="rgba(255,255,255,0.35)" stroke-width="1.5"/>
  <line x1="324" y1="0" x2="324" y2="900" stroke="rgba(255,255,255,0.35)" stroke-width="1.5"/>
  <line x1="475" y1="0" x2="475" y2="900" stroke="rgba(255,255,255,0.35)" stroke-width="1.5"/>
  <line x1="619" y1="0" x2="619" y2="900" stroke="rgba(255,255,255,0.35)" stroke-width="1.5"/>
  <line x1="821" y1="0" x2="821" y2="900" stroke="rgba(255,255,255,0.35)" stroke-width="1.5"/>
  <line x1="965" y1="0" x2="965" y2="900" stroke="rgba(255,255,255,0.35)" stroke-width="1.5"/>
  <line x1="1080" y1="0" x2="1080" y2="900" stroke="rgba(255,255,255,0.35)" stroke-width="1.5"/>
  <line x1="1224" y1="0" x2="1224" y2="900" stroke="rgba(255,255,255,0.35)" stroke-width="1.5"/>
  <line x1="1368" y1="0" x2="1368" y2="900" stroke="rgba(255,255,255,0.35)" stroke-width="1.5"/>

  <!-- Road labels (faint) -->
  <text x="403" y="308" text-anchor="middle" font-size="9" fill="rgba(100,80,60,0.5)" font-family="Roboto, sans-serif" font-weight="500">WESTERN EXPRESS HWY</text>
  <text x="749" y="308" text-anchor="middle" font-size="9" fill="rgba(100,80,60,0.5)" font-family="Roboto, sans-serif" font-weight="500">EASTERN EXPRESS HWY</text>
  <text x="200" y="534" text-anchor="middle" font-size="9" fill="rgba(100,80,60,0.5)" font-family="Roboto, sans-serif" font-weight="500">SV ROAD</text>

  <!-- Area labels -->
  <text x="188" y="220" text-anchor="middle" font-size="11" fill="rgba(100,80,60,0.45)" font-family="Roboto, sans-serif" font-weight="500" letter-spacing="0.08em">ANDHERI</text>
  <text x="520" y="280" text-anchor="middle" font-size="11" fill="rgba(100,80,60,0.45)" font-family="Roboto, sans-serif" font-weight="500" letter-spacing="0.08em">BANDRA</text>
  <text x="680" y="460" text-anchor="middle" font-size="11" fill="rgba(100,80,60,0.45)" font-family="Roboto, sans-serif" font-weight="500" letter-spacing="0.08em">DADAR</text>
  <text x="900" y="340" text-anchor="middle" font-size="11" fill="rgba(100,80,60,0.45)" font-family="Roboto, sans-serif" font-weight="500" letter-spacing="0.08em">KURLA</text>
  <text x="1100" y="580" text-anchor="middle" font-size="13" fill="rgba(100,160,200,0.6)" font-family="Roboto, sans-serif" font-style="italic">Arabian Sea</text>
</svg>
